<svg xmlns="http://www.w3.org/2000/svg" version="1.0" width="2940mm" height="1662mm" viewBox="0 0 2940 1662"><path fill="none" stroke="black" stroke-width="0.1" d="M0,554 C196,569.49 465.3,617.54 358.94,506.74 C252.57,395.94 644.57,395.94 554.94,506.74 C465.3,617.54 784,571.85 980,554 C1176,536.15 1414.93,620.42 1351.52,509.62 C1288.11,398.82 1680.11,398.82 1547.52,509.62 C1414.93,620.42 1764,552.08 1960,554 C2156,555.92 2463.02,617.2 2371.04,506.4 C2279.06,395.6 2671.06,395.6 2567.04,506.4 C2463.02,617.2 2744,550.14 2940,554 M0,1108 C196,1120.03 483,1062.97 421.37,1173.77 C359.75,1284.57 751.75,1284.57 617.37,1173.77 C483,1062.97 784,1117.64 980,1108 C1176,1098.36 1511.42,1173.6 1404.33,1062.8 C1297.25,952 1689.25,952 1600.33,1062.8 C1511.42,1173.6 1764,1104.39 1960,1108 C2156,1111.61 2428.85,1041.15 2358.18,1151.95 C2287.51,1262.75 2679.51,1262.75 2554.18,1151.95 C2428.85,1041.15 2744,1093.56 2940,1108 M980,0 C1011.95,110.8 1094.04,281.22 898.04,217.1 C702.04,152.97 702.04,374.57 898.04,327.9 C1094.04,281.22 1016.64,443.2 980,554 C943.36,664.8 860.58,830.89 1056.58,788.77 C1252.58,746.64 1252.58,968.24 1056.58,899.57 C860.58,830.89 1007.15,997.2 980,1108 C952.85,1218.8 897.39,1393.76 1093.39,1337.51 C1289.39,1281.27 1289.39,1502.87 1093.39,1448.31 C897.39,1393.76 985.62,1551.2 980,1662 M1960,0 C1997.88,110.8 1868.63,298.1 2064.63,230.28 C2260.63,162.45 2260.63,384.05 2064.63,341.08 C1868.63,298.1 1970.28,443.2 1960,554 C1949.72,664.8 1883.09,873.33 2079.09,796.2 C2275.09,719.07 2275.09,940.67 2079.09,907 C1883.09,873.33 1948.8,997.2 1960,1108 C1971.2,1218.8 1852.69,1402.14 2048.69,1350.39 C2244.69,1298.64 2244.69,1520.24 2048.69,1461.19 C1852.69,1402.14 1997.44,1551.2 1960,1662 M0,0 L2940,0 L2940,1662 L0,1662 L0,0 "></path></svg>